<svg width="40" height="46" viewBox="0 0 40 46" xmlns="http://www.w3.org/2000/svg">
<path d="M35.8594 14.875C37.4219 13.7031 38.8281 12.2969 39.9219 10.6562C38.5156 11.2812 36.875 11.75 35.2344 11.9062C36.9531 10.8906 38.2031 9.32812 38.8281 7.375C37.2656 8.3125 35.4688 9.01562 33.6719 9.40625C32.1094 7.76562 30 6.82812 27.6562 6.82812C23.125 6.82812 19.4531 10.5 19.4531 15.0312C19.4531 15.6562 19.5312 16.2812 19.6875 16.9062C12.8906 16.5156 6.79688 13.2344 2.73438 8.3125C2.03125 9.48438 1.64062 10.8906 1.64062 12.4531C1.64062 15.2656 3.04688 17.7656 5.3125 19.25C3.98438 19.1719 2.65625 18.8594 1.5625 18.2344V18.3125C1.5625 22.2969 4.375 25.5781 8.125 26.3594C7.5 26.5156 6.71875 26.6719 6.01562 26.6719C5.46875 26.6719 5 26.5938 4.45312 26.5156C5.46875 29.7969 8.51562 32.1406 12.1094 32.2188C9.29688 34.4062 5.78125 35.7344 1.95312 35.7344C1.25 35.7344 0.625 35.6562 0 35.5781C3.59375 37.9219 7.89062 39.25 12.5781 39.25C27.6562 39.25 35.8594 26.8281 35.8594 15.9688C35.8594 15.5781 35.8594 15.2656 35.8594 14.875Z" />
</svg>
